<svg xmlns="http://www.w3.org/2000/svg" viewBox="0 0 71.68 67.34"><title>virus1</title><path d="M66.72,39a4.94,4.94,0,0,0-3.27,1.24l-7.47-2A20.47,20.47,0,0,0,54.3,25.42L58.05,23a5,5,0,1,0-2.69-3.32l-3.31,2.14a20.55,20.55,0,0,0-6.78-5.65l2.81-6.29A5,5,0,1,0,44,8.56l-2.7,6.05a20.46,20.46,0,0,0-17.55,3.23l-2.94-3.65a5,5,0,1,0-3.34,2.63l3.13,3.88a20.45,20.45,0,0,0-4,6.83L9.71,25.68a5,5,0,1,0-.65,4.23l6.51,1.76a20.63,20.63,0,0,0-.18,2.68A20.38,20.38,0,0,0,17.8,44L7.57,50.6a5,5,0,1,0,2.31,3.57l10.31-6.67a20.57,20.57,0,0,0,4.63,4.07l-2.62,5.87a5,5,0,1,0,4,1.49l2.43-5.44a20.47,20.47,0,0,0,17.33-1.32L50.61,58A5,5,0,1,0,53.72,55l-4.31-5.35a20.51,20.51,0,0,0,5.35-7.45l7,1.89a5,5,0,1,0,5-5.19Z" style="fill:#7afa5e"/><circle cx="40.29" cy="25.72" r="4.45" style="fill:#2db21d"/><circle cx="36.78" cy="39.54" r="5.87" style="fill:#2db21d"/><circle cx="47.98" cy="33.2" r="3.07" style="fill:#2db21d"/></svg>