<svg xmlns="http://www.w3.org/2000/svg" xmlns:xlink="http://www.w3.org/1999/xlink" viewBox="0 0 143.57 384.22"><defs><clipPath id="a"><path d="M72.91,51.86,95,62.32S88.38,74,78.82,69.87,72.91,51.86,72.91,51.86Z" style="fill:none"/></clipPath></defs><title>homem</title><g style="isolation:isolate"><path d="M60.93,78.42q-.58,0-1.15,0a17.26,17.26,0,0,1-14.3-10.25c-1.57-3.7-1.72-7.83-1.67-11,0-2.56.21-5.17.38-7.7.45-6.9.92-14-1.36-20.48l1.89-.67c2.42,6.84,1.93,14.18,1.47,21.28-.16,2.5-.33,5.09-.37,7.6,0,3,.09,6.85,1.51,10.21a14.88,14.88,0,0,0,26.41,1.94l1.71,1A17.31,17.31,0,0,1,60.93,78.42Z" style="fill:#1a2979"/><path d="M49.58,21.07c-2.28-4.24-1.18-10.14,2.59-14s9.36-5.27,13.26-5.63a66.11,66.11,0,0,1,11,.22l3.09.22c4.2.26,9.08.32,13.46-1.22l.66,1.89C89,4.18,83.85,4.12,79.45,3.84l-3.12-.22A65,65,0,0,0,65.62,3.4c-3.57.33-8.55,1.47-12,5-3.19,3.28-4.14,8.2-2.27,11.7Z" style="fill:#1a2979"/><path d="M103.86,16.42s11.34,12.37,4.56,31L98.9,19.09Z" style="fill:#1a2979"/><path d="M133.07,371.11s5.75,3.08,8.6,5,2.21,6.64,0,7.27-17.07,1.58-27.18,0-12.1-.24-10.74-15.63l.57-6.22,29.38,4.77Z" style="fill:#1a2979"/><path d="M133.49,367.86l.21-1.58-.44-.07-.18,1.42Z" style="fill:#2740a8"/><path d="M141.66,379.87c-2.21.63-17.07,1.58-27.18,0-7.72-1.21-10.7-.72-11.08-7.26-.42,10.22,2.19,9.35,11.08,10.74,10.11,1.58,25,.63,27.18,0,1.6-.46,2.37-3.06,1.59-5.19A2.61,2.61,0,0,1,141.66,379.87Z" style="fill:#2740a8"/><path d="M33.5,371.11s5.75,3.08,8.6,5,2.21,6.64,0,7.27-17,1-27.18,0c-12.76-1.26-16.12-4.43-10.74-15.63L7.54,362l26.59,4.31Z" style="fill:#1a2979"/><path d="M34,367.53l.16-1.25-.49-.08-.14,1.08Z" style="fill:#2740a8"/><path d="M42.1,379.52c-2.21.63-17,1-27.18,0C7.22,378.76,3,377.29,2,373.8c-1.3,6.36,2.9,8.56,12.95,9.55s25,.63,27.18,0c1.65-.47,2.41-3.21,1.53-5.37A2.53,2.53,0,0,1,42.1,379.52Z" style="fill:#2740a8"/><path d="M95.15,182.21s25.51,61.87,34,82.6,11,24.53,9.73,48.21-5.78,58.09-5.78,58.09-17.48,7.19-29.32-3.38c0,0,4.23-45,3.81-62.74s-33.77-92.46-33.77-92.46l-5.14.85s-.42,54.82,0,73.43-6.34,26.37-34.26,84.31c0,0-16.9,6.77-30.21-3.38,0,0,18.87-52.59,23.94-65.28s8.35-21,5.66-51.44,1-34.68-1.93-47.37,14-41.68,14-41.68Z" style="fill:#88dbfa"/><g style="mix-blend-mode:soft-light"><path d="M11.95,367.73s18.87-52.59,23.94-65.28,8.35-21,5.66-51.44,1-34.68-1.93-47.37c-2.42-10.39,8.49-31.7,12.52-39.09L45.83,162s-16.94,29-14,41.68-.77,16.92,1.93,47.37-.58,38.75-5.66,51.44S4.17,367.73,4.17,367.73c7.18,5.47,15.4,6,21.45,5.37A27.35,27.35,0,0,1,11.95,367.73Z" style="fill:#272425"/><path d="M111.51,367.73s4.23-45,3.81-62.74-34.64-94.12-34.64-94.12l-6.91,1.66,2.6,5.9c7.85,18,30.82,71.84,31.17,86.56.42,17.76-3.81,62.74-3.81,62.74,6.35,5.67,14.31,6.23,20.34,5.53A22.77,22.77,0,0,1,111.51,367.73Z" style="fill:#272425"/></g><rect x="66.82" y="71.8" width="21.16" height="42.76" transform="matrix(-0.93, -0.37, 0.37, -0.93, 115.16, 208.28)" style="fill:#ebb5af"/><path d="M88.32,79.7h0a25.57,25.57,0,0,0,21.24-29.26l-2.35-14.8A25.57,25.57,0,0,0,77.95,14.39h0A25.57,25.57,0,0,0,56.7,43.65l2.35,14.8A25.57,25.57,0,0,0,88.32,79.7Z" style="fill:#ebb5af"/><path d="M93.55,102.5a83.47,83.47,0,0,1,5,24c.6,14.09-2.68,33.45-2.12,59.48,0,0-26.78,13-64.12,0l8.3-50.36S51,96.1,64.29,97.56c0,0,2.35,8.47,11.21,9.5s10-5.58,10-5.58l7.88.52" style="fill:#1d5fb2"/><path d="M40.61,135.62H48.4s-3.79,28.47-5.72,53.4c0,0-7.94-1.88-10.36-3C32.31,186,35.37,165.88,40.61,135.62Z" style="fill:#272425;opacity:0.5;mix-blend-mode:soft-light"/><path d="M37.79,174l6.66,7.72s11.07,5.47,9.74,9.4a35.2,35.2,0,0,1-7.74-1.34,24.36,24.36,0,0,1-12.18,16.48s-2.45-4.21-6-16.13l-5.26-7Z" style="fill:#ebb5af"/><path d="M64.29,97.56S55.15,93,33.88,109.13-4.78,135.07,1.19,149.34s21.87,40.75,21.87,40.75a30.27,30.27,0,0,0,20.41-12.48S33.88,162.05,30,155.83s-6-8.56,15.31-22.31A40.3,40.3,0,0,0,64.29,97.56Z" style="fill:#1d5fb2"/><path d="M57.54,48.89l5.71-19.28s28.9,4,37.16-2.41c9.49-7.39,11-16,5.66-22.11C101.39-.23,91.83-2.07,79.2,3S54.33,3.2,45.53,17.9,48,45.94,48,59.54s13.77,20.83,20.72,15.2Z" style="fill:#1a2979"/><circle cx="58.17" cy="55.8" r="6.94" transform="translate(-3.48 107.73) rotate(-83.92)" style="fill:#ebb5af"/><ellipse cx="98.17" cy="41.26" rx="2.39" ry="3.36" transform="translate(-3.67 10.14) rotate(-5.8)" style="fill:#1a2979"/><ellipse cx="82.98" cy="43.07" rx="2.39" ry="3.36" transform="translate(-3.93 8.61) rotate(-5.8)" style="fill:#1a2979"/><path d="M90.64,35.09,92.9,46.64S97.32,45.91,99,49s-2.89,5.55-2.89,5.55" style="fill:none;stroke:#d89593;stroke-miterlimit:10;stroke-width:2px"/><path d="M72.91,51.86,95,62.32S88.38,74,78.82,69.87,72.91,51.86,72.91,51.86Z" style="fill:#1a2979"/><g style="clip-path:url(#a)"><path d="M95,59.69s-8,6.14-15.39,1.61a25.7,25.7,0,0,1-10-11.66l4.63-.37Z" style="fill:#fff"/><path d="M69.61,60.18S82.8,60,82.29,72.65L72.22,70.75Z" style="fill:#b07bd5"/></g><path d="M32.94,208.35l-.73-1.86a23.49,23.49,0,0,0,13.27-16.92l2,.36A25.08,25.08,0,0,1,32.94,208.35Z" style="fill:#5f88c5"/><polygon points="70.73 213.02 68.64 213.37 68.73 191.7 70.73 191.61 70.73 213.02" style="fill:#5f88c5"/><polygon points="74.84 212.27 72.74 212.69 76.36 191.12 78.43 190.85 74.84 212.27" style="fill:#5f88c5"/><path d="M8.65,363.81a19.44,19.44,0,0,1-2.58-1.35l.68-1.89A27,27,0,0,0,9.48,362Z" style="fill:#5f88c5"/><path d="M24.11,367.12a37.61,37.61,0,0,1-4.86-.32l.26-2a35.4,35.4,0,0,0,5.22.29l0,2Zm3.41-.16-.18-2a35.63,35.63,0,0,0,5.16-.86l.47,1.94A37.71,37.71,0,0,1,27.52,367Zm-11-.62a38,38,0,0,1-5.31-1.5L11.9,363a36.17,36.17,0,0,0,5,1.42Z" style="fill:#5f88c5"/><path d="M35.64,365.3,35,363.4c.92-.29,2.85-1,3.75-1.36l-1.2,2.61A18,18,0,0,1,35.64,365.3Z" style="fill:#5f88c5"/><path d="M106.76,363.55c-1.75-.64-2.5-1-2.55-1l.19-2.16c-.32-.21,1.37.68,3,1.29Z" style="fill:#5f88c5"/><path d="M122,366.86a38.84,38.84,0,0,1-5.2-.57l.34-2a36.78,36.78,0,0,0,4.93.55Zm2.64,0-.11-2a17.35,17.35,0,0,0,4.73-.88l.66,1.89A19.34,19.34,0,0,1,124.6,366.84Zm-10.4-1.07c-1.62-.37-3.3-.83-5-1.38l.61-1.9c1.65.53,3.27,1,4.84,1.33Z" style="fill:#5f88c5"/><path d="M132.37,364.69l-1-1.72a19.81,19.81,0,0,0,3-2.41l-.36,3A7.15,7.15,0,0,1,132.37,364.69Z" style="fill:#5f88c5"/><path d="M94.87,77.73a27.07,27.07,0,0,1-22.49-.67l-2.93,7.41s10.89,9.62,21.89,2.18Z" style="fill:#d89593;opacity:0.5"/><path d="M8.69,149.34c-6-14.27,12.41-21.13,33.69-37.21C52.59,104.41,59,98.44,64,97.44c-1.8-.61-11.12-2.64-30.08,11.69C12.6,125.21-4.78,135.07,1.19,149.34s21.87,40.75,21.87,40.75a26.32,26.32,0,0,0,6.5-1.68C26,182.37,13.76,161.46,8.69,149.34Z" style="fill:#272425;opacity:0.5;mix-blend-mode:soft-light"/><path d="M101.48,12.25a22.57,22.57,0,0,1-10,9.49,22.57,22.57,0,0,1-13.65,1.84" style="fill:none;stroke:#2f4394;stroke-miterlimit:10;stroke-width:2px"/><path d="M96.6,10.84a14.4,14.4,0,0,1-6.44,4.7,43,43,0,0,1-7.81,2" style="fill:none;stroke:#2f4394;stroke-miterlimit:10;stroke-width:2px"/><path d="M75.65,109.06h-.16C65.6,109,61.71,97.58,61.57,97.13L65,95.73c.11.33,3.55,9.28,10.5,9.33a13.33,13.33,0,0,0,10.62-5.2l3,1.86C89,102,85.49,109.06,75.65,109.06Z" style="fill:#b07bd5"/><path d="M66.75,52.49c-3-2.22-7-4.37-10.8-4.22a.38.38,0,0,0-.09.74c3.74,1.22,7.07,2,10.37,4.44C66.78,53.86,67.3,52.9,66.75,52.49Z" style="fill:#fff"/><path d="M66.88,61.16a65.73,65.73,0,0,1-12,4.72c-.48.15-.41,1,.12,1a26,26,0,0,0,12.43-4.69C68,61.74,67.5,60.82,66.88,61.16Z" style="fill:#fff"/><path d="M110.53,56.72C109.74,77.43,88,78.5,88,78.5,68,77.51,65,61.5,64.69,54.62a25.73,25.73,0,0,1,0-3.1c9.26-1.88,31.54-1.88,31.54-1.88,3.55,0,14.27,4.12,14.27,4.12C110.56,54.79,110.57,55.77,110.53,56.72Z" style="fill:#97cfff"/><path d="M110.53,56.72c-10.12-5.29-38.31-2.87-45.84-2.1a25.73,25.73,0,0,1,0-3.1c9.26-1.88,31.54-1.88,31.54-1.88,3.55,0,14.27,4.12,14.27,4.12C110.56,54.79,110.57,55.77,110.53,56.72Z" style="fill:#7285bf"/><path d="M106.1,61.73c-5.64-2-11.38-4.72-17.39-4.22-6.41.53-13,.81-19.32,2.14-.44.09-.32.79.1.81,6.19.25,12.49-.54,18.65-1.06s11.73,2.18,17.52,4C106.68,63.7,107.09,62.07,106.1,61.73Z" style="fill:#82c6f9"/><path d="M100.55,69.64c-4.29-1.8-8.65-4.36-13.19-3.83-4.84.57-9.82.89-14.58,2.22-.33.09-.23.75.09.77C77.54,69,82.3,68.15,87,67.6s8.89,2,13.29,3.61C101,71.5,101.3,70,100.55,69.64Z" style="fill:#82c6f9"/></g></svg>