<svg xmlns="http://www.w3.org/2000/svg" xmlns:xlink="http://www.w3.org/1999/xlink" viewBox="0 0 141.86 373.31"><defs><clipPath id="a"><path d="M32.37,58.57l21.29-8.83S57.68,62,48,65.82,32.37,58.57,32.37,58.57Z" style="fill:none"/></clipPath></defs><title>mulher</title><g style="isolation:isolate"><path d="M102.12,91.22l-.11-2c6.31-.34,10.76-7.1,10.81-13,.07-7.13-4.4-13.15-8.15-16.94a92.89,92.89,0,0,0-9.1-7.72c-2.09-1.62-4.25-3.3-6.28-5.08a71.3,71.3,0,0,1-12.5-14.25l1.67-1.11A69.32,69.32,0,0,0,90.61,45c2,1.74,4.13,3.4,6.2,5a94.51,94.51,0,0,1,9.29,7.89c4,4.06,8.8,10.55,8.73,18.37C114.76,83.17,109.64,90.81,102.12,91.22Z" style="fill:#1d5fb2"/><path d="M34,6.58S20.68,5.37,15.42,20.32s-4.85,32.75-3.64,44.47S.51,81,4.12,93.59s20,5,20,5,2.06-6,15-6,18-4,18-4S69,111.16,78,106.57s7.78-15.5,7.78-15.5,12.13,6.62,19.4-1.74,6.87-20.92-4-29.4S87,46.6,85.76,34.07,80.1,5.77,63.93,1.73,37.25,1.32,34,6.58Z" style="fill:#1d5fb2"/><path d="M10.5,360.2s-5.75,3.08-8.6,5-2.21,6.64,0,7.27,17.07,1.58,27.18,0,12.1-.24,10.74-15.63l-.57-6.22L9.87,355.37Z" style="fill:#1d5fb2"/><path d="M10.5,356.73l-.19-1.43-.44.07.21,1.59Z" style="fill:#5eaefa"/><path d="M29.09,369c-10.11,1.58-25,.63-27.18,0a2.61,2.61,0,0,1-1.6-1.71c-.77,2.12,0,4.73,1.6,5.18,2.21.63,17.07,1.58,27.18,0,8.89-1.39,11.5-.52,11.08-10.74C39.79,368.26,36.81,367.77,29.09,369Z" style="fill:#5eaefa"/><path d="M110.07,360.2s-5.75,3.08-8.6,5-2.21,6.64,0,7.27,17,1,27.18,0c12.76-1.26,16.12-4.43,10.74-15.63L136,351.06l-26.59,4.31Z" style="fill:#1d5fb2"/><path d="M110.07,356.63l-.17-1.33-.46.07.19,1.49Z" style="fill:#5eaefa"/><path d="M128.66,368.87c-10.19,1-25,.63-27.18,0a2.59,2.59,0,0,1-1.58-1.66c-.8,2.13,0,4.77,1.58,5.23,2.21.63,17,1,27.18,0,10-1,14.18-3.16,13-9.4C140.69,366.62,136.42,368.1,128.66,368.87Z" style="fill:#5eaefa"/><path d="M48.42,171.31s-25.51,62.87-34,83.6-11,24.53-9.73,48.21S10.5,360.2,10.5,360.2s17.48,7.19,29.32-3.38c0,0-4.23-44-3.81-61.74s33.77-93.46,33.77-93.46l5.14.85s.42,55.82,0,74.43,6.34,25.37,34.26,83.31c0,0,16.9,6.77,30.21-3.38,0,0-23.87-51.59-28.94-64.28s-8.35-22-5.66-52.44,4-34.68,6.93-47.37-14-41.68-14-41.68Z" style="fill:#66adea"/><g style="opacity:0.5;mix-blend-mode:soft-light"><path d="M36,295.08c.37-15.57,26-75.68,32.37-90.26l1.4-3.2H63.24s-33.35,75.7-33.77,93.46,3.81,61.74,3.81,61.74a22.92,22.92,0,0,1-13.12,5.6c5.94.58,13.56-.14,19.67-5.6C39.83,356.82,35.6,312.84,36,295.08Z" style="fill:#272425"/><path d="M110.45,292.54c-5.07-12.69-8.35-22-5.66-52.44s4-34.68,6.93-47.37-14-41.68-14-41.68l-5.32,2.19c3.83,7,15.22,28.91,12.75,39.5-3,12.69-4.23,16.92-6.93,47.37s.58,39.75,5.66,52.44,28.94,64.28,28.94,64.28a27.49,27.49,0,0,1-14.24,5.44c6,.54,13.87-.16,20.79-5.44C139.39,356.82,115.53,305.23,110.45,292.54Z" style="fill:#272425"/></g><rect x="43.89" y="60.89" width="21.16" height="42.76" transform="translate(-26.41 25.76) rotate(-21.55)" style="fill:#f0c4c1"/><path d="M37.28,75.3h0A25.57,25.57,0,0,1,19.25,44l3.9-14.47a25.57,25.57,0,0,1,31.35-18h0a25.57,25.57,0,0,1,18,31.35l-3.9,14.47A25.57,25.57,0,0,1,37.28,75.3Z" style="fill:#f0c4c1"/><circle cx="69.79" cy="54.73" r="6.94" style="fill:#f0c4c1"/><path d="M85.76,91.07s29.63,14.77,39,20.2,11.37,8.9,1.73,27.43-14.83,26.69-14.83,26.69l-2.64,11s-14.17,4.79-23.8-9.55a37.93,37.93,0,0,1,6.18-2s8.9-19.28,12.85-28.67,5-9.39-6.41-14.86c-8.17-3.93-21.13-11.58-21.13-11.58Z" style="fill:#f0c4c1"/><path d="M124.79,111.27c-9.39-5.44-39-20.2-39-20.2l-.39,5.46c9.21,4.63,22.76,12.91,29.45,16.78,9.39,5.44,13.64,6.87,4,25.4S104,165.4,104,165.4l-2.64,11a14.09,14.09,0,0,1-1.75.42,20.72,20.72,0,0,0,9.44-.42l2.64-11s5.19-8.16,14.83-26.69S134.18,116.71,124.79,111.27Z" style="fill:#272425;opacity:0.5;mix-blend-mode:soft-light"/><polygon points="88.83 117.85 97.74 151.05 93.28 160.82 81.98 117.85 88.83 117.85" style="fill:#afc652;opacity:0.5"/><path d="M68.35,88.61s11-1.65,18.08.28c9.77,2.68,29,16.68,29,16.68a22.2,22.2,0,0,1-1.82,7.2S90,99.43,86.57,97.24a27.06,27.06,0,0,0-19.65-3.63A8.65,8.65,0,0,0,68.35,88.61Z" style="fill:#afc652;opacity:0.5"/><path d="M21.75,25.81s14-2.45,21.32-10.14c0,0-2,22.72,19.78,23.07l2.12,11,6.22-2S83.06,19.85,59.43,9.72,21.75,25.81,21.75,25.81Z" style="fill:#1d5fb2"/><ellipse cx="27.05" cy="40.02" rx="2.39" ry="3.36" style="fill:#1a2979"/><ellipse cx="41.55" cy="40.38" rx="2.39" ry="3.36" style="fill:#1a2979"/><path d="M33.91,33.12,32.84,44.84s-4.47-.28-5.78,2.94S30.48,53,30.48,53" style="fill:none;stroke:#d89593;stroke-miterlimit:10;stroke-width:2px"/><path d="M32.37,58.57l21.29-8.83S57.68,62,48,65.82,32.37,58.57,32.37,58.57Z" style="fill:#1a2979"/><g style="clip-path:url(#a)"><path d="M33.32,56.65a15.88,15.88,0,0,0,12.57,1.53c6.8-2.2,10.31-8.45,10.31-8.45l-1-3Z" style="fill:#fff"/><path d="M43.94,68.68s2.16-11.85,13.39-12l-1.13,7Z" style="fill:#b07bd5"/></g><path d="M104.94,178.45h-.62a24,24,0,0,1-19.8-10.65l1.61-1.19a22.14,22.14,0,0,0,18.24,9.84,11.11,11.11,0,0,0,4.58-.65l.75,1.85A12.43,12.43,0,0,1,104.94,178.45Z" style="fill:#5f88c5"/><path d="M69,201.89c-.56-9-1.31-18.95-2.09-27.88l2-.37c.79,8.95,1.55,19.13,2.11,28.12Z" style="fill:#5f88c5"/><path d="M75.81,202.11l-2-.11c.51-9.58.94-20.11,1.2-29.76l2-.71C76.78,181.2,76.33,192.51,75.81,202.11Z" style="fill:#5f88c5"/><path d="M22.48,358.49a37.39,37.39,0,0,1-3.93-.21l.21-2a33.53,33.53,0,0,0,5.82.13l.14,2C24,358.46,23.24,358.49,22.48,358.49Zm5.32-.46-.36-2a20.75,20.75,0,0,0,5.43-1.74l.88,1.8A22.77,22.77,0,0,1,27.81,358Zm-12.29-.19a31.53,31.53,0,0,1-5.5-1.41l-.27-2.11a42.13,42.13,0,0,0,6.12,1.55Zm21-3.33-1.16-1.63a24.79,24.79,0,0,0,3.82-3.52l.23,2.49A12.72,12.72,0,0,1,36.48,354.51Z" style="fill:#5f88c5"/><path d="M118.42,356.79c-1.11,0-2.27,0-3.44-.14l.16-2c1.12.09,2.22.14,3.28.14.88,0,1.73,0,2.56-.09l.14,2c-.87.06-1.77.09-2.67.09Zm5.78-.45-.33-2a23.93,23.93,0,0,0,5.52-1.59l.79,1.84A25.93,25.93,0,0,1,124.19,356.33Zm-12.27,0a29.55,29.55,0,0,1-5.14-1l-1.14-2.34a57.06,57.06,0,0,0,6.57,1.41Zm21-3.14-1.05-1.7a20.61,20.61,0,0,0,3.66-2.94l.86,1.86A16.58,16.58,0,0,1,133,353.16Z" style="fill:#5f88c5"/><path d="M40.6,76l2.83,7.16S57.18,84.59,63.35,76L60.9,69.75A25.72,25.72,0,0,1,40.6,76Z" style="fill:#d89593;opacity:0.5"/><path d="M59.91,136.12a16.38,16.38,0,0,0,16.67-2.88" style="fill:none;stroke:#afc652;stroke-miterlimit:10;stroke-width:2px"/><path d="M48.75,13.54A24.22,24.22,0,0,0,65.31,33.77" style="fill:none;stroke:#0071bc;stroke-miterlimit:10;stroke-width:2px"/><path d="M54.9,13.48A33.58,33.58,0,0,0,68.3,26" style="fill:none;stroke:#0071bc;stroke-miterlimit:10;stroke-width:2px"/><path d="M16.85,78.9A14.44,14.44,0,0,0,16,97.74" style="fill:none;stroke:#0071bc;stroke-miterlimit:10;stroke-width:2px"/><path d="M22,82a12.92,12.92,0,0,0,1.38,12.93" style="fill:none;stroke:#0071bc;stroke-miterlimit:10;stroke-width:2px"/><path d="M55.78,101.41c-5.77,0-10.29-5.78-10.44-6l2.2-1.89c.11.15,5.32,4.85,10.33,3.62,5.29-1.29,9.42-5.27,9.93-9.94l3.53,1.07c-.69,6.31-5.66,11.08-12.51,12.76A12.73,12.73,0,0,1,55.78,101.41Z" style="fill:#66adea"/><path d="M86.43,88.89c-6.69-1.9-18.08-.28-18.08-.28s.23,8.55-10,10.48c-7.51,1.41-9.92-3.33-9.92-3.33a16.92,16.92,0,0,0-4.79-.29l-8.06,30.79c.45,12.06,10.32,13.8,10.32,13.8l2.53,31.25c23,8,37.71-4.71,37.71-4.71l5.3-1.69,6.32-13.85-8.92-33.2L104,124.56c11.33-8.44,11.42-19,11.42-19S96.42,91.73,86.43,88.89Z" style="fill:#654cff"/><path d="M42.8,95.55a48.42,48.42,0,0,0-7.68,30c0,.08,0,.16,0,.25l0-.25c0,.14.44.53.45.67l8.06-30.79Z" style="fill:#654cff"/><path d="M67,47.77a7.59,7.59,0,0,0-1.82,4.65c0,.81,1.33,1,1.48.2a18.23,18.23,0,0,1,1.14-4.24C68,47.91,67.4,47.28,67,47.77Z" style="fill:#fff"/><path d="M68,63.27a6.19,6.19,0,0,0-.82-.52c-.29-.18-.5-.42-.78-.6-.63-.4-1.25.37-1,.94a2.18,2.18,0,0,0,1.15.9,1.63,1.63,0,0,0,1.32,0A.46.46,0,0,0,68,63.27Z" style="fill:#fff"/><path d="M66.6,52c0,1.7-.07,3.28-.11,4.67-.06,2.1-.12,3.75-.16,4.67a10.33,10.33,0,0,1-.17,1.61C64.41,71.55,56,76.34,49.59,78.77A21.22,21.22,0,0,1,31,77.12a33.76,33.76,0,0,1-5.08-3.82,26.69,26.69,0,0,1-8.51-16.11c-.12-.83-.19-1.67-.23-2.52,0-.44,0-.9-.06-1.35l12.72-4S53.71,48.44,66.48,52Z" style="fill:#97cfff"/><path d="M66.6,52c0,1.7-.07,3.28-.11,4.67-10-2.83-36.27-2.83-36.27-2.83L17.41,57.19c-.12-.83-.19-1.67-.23-2.52,0-.44,0-.9-.06-1.35l12.72-4S53.71,48.44,66.48,52Z" style="fill:#fff"/><path d="M59.44,59.56c-6.62-.59-13.28-1.1-19.92-1.17-5.35-.05-10.58,2.23-15.32,4.67-.36.19-.11.82.28.68,2.67-1,5.29-2.11,8-3a20.93,20.93,0,0,1,8.72-.94c6.09.39,12.18.74,18.26,1.22C60.32,61.06,60.31,59.64,59.44,59.56Z" style="fill:#82c6f9"/><path d="M57.46,66.52C52.28,66.26,47,66,41.84,66.13c-4.58.15-9.35,1.73-13.68,3.19a.51.51,0,0,0,.26,1c4.79-.83,9.51-2.69,14.39-2.69s9.77.25,14.65.33C58.34,68,58.34,66.56,57.46,66.52Z" style="fill:#82c6f9"/></g></svg>