<svg xmlns="http://www.w3.org/2000/svg" viewBox="0 0 113.97 42.99"><title>mao-mulher</title><path d="M110.28,16.29,22.41,24.11s2.78-7.54,0-8.77-6.24,5.44-6.24,5.44S18.89,3.47,12.71,3c0,0,.74-3.21-2-3S7,5,7,5s-4.45-.88-4.7,7.1a106.14,106.14,0,0,0,0,10.7S-2.84,33.62,2.22,39.8s16.17,1.48,16.17,1.48l83.57.49Z" style="fill:#f0c4c1"/><path d="M12.86,3c-2,1.65-2.5,4.5-2.7,7.1a74.75,74.75,0,0,0-.09,10.39" style="fill:none;stroke:#d89593;stroke-miterlimit:10;stroke-width:2px"/><path d="M6.91,5.08a35.68,35.68,0,0,0-.75,16.31" style="fill:none;stroke:#d89593;stroke-miterlimit:10;stroke-width:2px"/><path d="M8.92,26.76a11.3,11.3,0,0,0-1.2,10.38" style="fill:none;stroke:#d89593;stroke-miterlimit:10;stroke-width:2px"/><path d="M114,12.13c-4.57.54-8.93,2.6-14,4-6.24,1.75-17.66,2.13-17.66,2.13a35.5,35.5,0,0,0,2.14,24l21.89.13c0-.08,0-.16,0-.25A48.42,48.42,0,0,1,114,12.13Z" style="fill:#654cff"/></svg>